<?xml version="1.0" encoding="utf-8"?>
<!-- Generator: Adobe Illustrator 19.2.0, SVG Export Plug-In . SVG Version: 6.00 Build 0)  -->
<svg version="1.1" id="Layer_1" xmlns="http://www.w3.org/2000/svg" xmlns:xlink="http://www.w3.org/1999/xlink" x="0px" y="0px"
	 viewBox="0 0 10.4 9.9" style="enable-background:new 0 0 10.4 9.9;" xml:space="preserve">
<style type="text/css">
	.st0{fill:#00C7FF;}
	.st1{fill:#FFA400;}
	.st2{fill:none;stroke:#00E942;stroke-width:0.2;stroke-miterlimit:10;}
	.st3{fill:#FFFFFF;}
</style>
<path class="st0" d="M1.2,9.6c2.6,0,5.3,0,7.9,0c0-0.1,0-0.3,0-0.4c-0.1,0-0.1,0-0.2,0c-2.5,0-5,0-7.5,0c-0.1,0-0.2,0-0.2,0.1
	C1.2,9.4,1.2,9.5,1.2,9.6z"/>
<path class="st1" d="M2.1,8.7c2,0,4,0,6.1,0c0-0.1,0-0.2,0-0.3c0,0-0.1,0-0.1,0c-1.9,0-3.9,0-5.8,0c-0.1,0-0.1,0-0.1,0.1
	C2.1,8.5,2.1,8.6,2.1,8.7z"/>
<circle class="st2" cx="5.1" cy="4.1" r="3.3"/>
<path class="st2" d="M7.8,4.1c0,1.5-1.2,2.7-2.7,2.7S2.4,5.6,2.4,4.1"/>
<g>
	<g>
		<path class="st3" d="M3.7,2.3C3.7,2.4,3.9,2.6,4,2.9c0.1,0.2,0.2,0.4,0.4,0.6L4.1,3.7L3.9,3.3l0,0.6L3.3,3.7l0.2,0.4L3.2,4.3
			C3.1,4.2,3,4,2.8,3.7C2.7,3.5,2.5,3.3,2.4,3.1l0.5-0.3c0,0,0.1,0.1,0.2,0.1C3.1,3,3.2,3,3.3,3.1c0-0.1,0-0.2,0-0.3
			c0-0.1,0-0.1,0-0.2L3.7,2.3z"/>
		<path class="st3" d="M5.3,2l0,0.6c0,0-0.1,0-0.2,0c-0.1,0-0.1,0-0.2,0l0,0.2c0.1,0,0.2,0,0.3,0c0,0,0,0.1,0,0.1c0,0,0,0.1,0,0.1
			c0,0-0.1,0-0.1,0c0,0-0.1,0-0.2,0l0,0.2c0,0,0.1,0,0.3,0c0,0,0.1,0,0.1,0c0,0,0,0.1,0,0.1c0,0,0,0.1,0,0.1L4.5,3.6L4.4,2.8
			c0-0.2-0.1-0.4-0.1-0.7L5.3,2z"/>
		<path class="st3" d="M6.8,2.4L6.6,2.9c0,0-0.1,0-0.1-0.1c0,0-0.1,0-0.2-0.1L6.2,3C6.2,3,6.4,3,6.5,3.1c0,0,0,0.1-0.1,0.1
			c0,0,0,0.1-0.1,0.1c0,0-0.1,0-0.1-0.1c0,0-0.1,0-0.1,0L6,3.4c0,0,0.1,0,0.3,0.1c0,0,0.1,0,0.1,0c0,0,0,0.1-0.1,0.1
			c0,0,0,0.1-0.1,0.1L5.4,3.5l0.2-0.7c0-0.2,0.1-0.4,0.2-0.7L6.8,2.4z"/>
		<path class="st3" d="M8.2,3.4L7.7,3.8c0,0,0,0-0.1-0.1c0,0-0.1-0.1-0.1-0.1c0,0-0.1,0.1-0.2,0.2C7.3,3.9,7.1,4.1,6.9,4.3L6.6,4
			c0.1-0.1,0.2-0.3,0.4-0.5C7,3.4,7.1,3.3,7.1,3.3L7,3.2L6.9,3.1l0.4-0.5L8.2,3.4z"/>
	</g>
	<g>
		<g>
			<path class="st3" d="M5.3,4.2l0,0.6c0,0.2,0,0.4,0,0.8C5.1,5.6,4.9,5.7,4.7,5.7c-0.2,0-0.4,0-0.5-0.1C4.1,5.5,4.1,5.4,4,5.2
				C4,5.1,4,5,4,4.7c0-0.2,0-0.4,0-0.6h0.6c0,0.1,0,0.2,0,0.4c0,0.1,0,0.3,0,0.5c0,0.1,0,0.2,0,0.3c0,0.1,0.1,0.1,0.2,0.1
				c0,0,0,0,0.1,0c0-0.1,0-0.3,0-0.6c0-0.1,0-0.3,0-0.6H5.3z"/>
			<path class="st3" d="M6.6,4.7c0,0.2-0.1,0.3-0.2,0.4C6.3,5.3,6.1,5.3,5.9,5.3l0,0.3H5.4l0-0.7c0-0.2,0-0.4,0-0.8
				c0.1,0,0.2,0,0.4,0c0.2,0,0.4,0,0.6,0.1C6.5,4.4,6.6,4.5,6.6,4.7z M6.2,4.9c0-0.1-0.1-0.1-0.2-0.1c0,0,0,0,0,0l0,0.3
				C6.1,5.1,6.2,5,6.2,4.9z"/>
		</g>
	</g>
</g>
</svg>
