<?xml version="1.0" encoding="utf-8"?>
<!-- Generator: Adobe Illustrator 19.2.0, SVG Export Plug-In . SVG Version: 6.00 Build 0)  -->
<svg version="1.1" id="Layer_1" xmlns="http://www.w3.org/2000/svg" xmlns:xlink="http://www.w3.org/1999/xlink" x="0px" y="0px"
	 viewBox="0 0 17.5 18.9" style="enable-background:new 0 0 17.5 18.9;" xml:space="preserve">
<style type="text/css">
	.st0{fill:#005EFF;}
	.st1{fill:#FF2A81;}
	.st2{fill:#00C7FF;}
	.st3{fill:#FFA400;}
	.st4{fill:none;stroke:#00E942;stroke-width:0.2;stroke-miterlimit:10;}
	.st5{fill:#FFFFFF;}
</style>
<g>
	<path class="st0" d="M4.6,11.4c0.6,0,1.1,0,1.6,0c0.4,0,0.7,0,1.1,0c0.2,0,0.4,0.1,0.4,0.3c0.3,1.6,0.7,3.1,1,4.7
		c0.1,0.3-0.1,0.4-0.3,0.5c-0.2,0-0.4-0.1-0.4-0.3c-0.3-1.4-0.6-2.9-0.9-4.3c0-0.1-0.1-0.2-0.2-0.2c-0.8,0-1.7,0-2.5,0
		c-0.3,0-0.5-0.1-0.5-0.5c0-1.3,0-2.5,0-3.8c0-0.2-0.1-0.4-0.3-0.5C3.4,7.2,3.2,7.2,3,7.3C2.8,7.4,2.7,7.6,2.7,7.8
		c0,1.6,0,3.2,0,4.9c0,0.3,0.2,0.4,0.4,0.4c0.3,0,0.7,0,1,0c0.7,0,1.3,0,2,0c0.3,0,0.4,0.1,0.5,0.4c0.2,1,0.4,2,0.6,2.9
		c0.1,0.3,0,0.5-0.3,0.5c-0.2,0.1-0.4-0.1-0.5-0.3C6.4,15.7,6.2,14.9,6,14c0-0.2-0.1-0.2-0.2-0.2c-0.8,0-1.7,0-2.5,0
		c-0.7,0-1.3-0.5-1.3-1.3C2,11,2,9.4,2,7.8c0-0.6,0.3-1,0.9-1.2C3.4,6.4,4,6.6,4.3,7c0.2,0.2,0.2,0.5,0.2,0.8c0,1.1,0,2.2,0,3.4
		C4.6,11.2,4.6,11.3,4.6,11.4z"/>
</g>
<g>
	<path class="st1" d="M13.4,11.4c-0.6,0-1.1,0-1.6,0c-0.4,0-0.7,0-1.1,0c-0.2,0-0.4,0.1-0.4,0.3c-0.3,1.6-0.7,3.1-1,4.7
		c-0.1,0.3,0.1,0.4,0.3,0.5c0.2,0,0.4-0.1,0.4-0.3c0.3-1.4,0.6-2.9,0.9-4.3c0-0.1,0.1-0.2,0.2-0.2c0.8,0,1.7,0,2.5,0
		c0.3,0,0.5-0.1,0.5-0.5c0-1.3,0-2.5,0-3.8c0-0.2,0.1-0.4,0.3-0.5c0.2-0.1,0.4-0.1,0.6,0c0.2,0.1,0.2,0.2,0.2,0.4c0,1.6,0,3.2,0,4.9
		c0,0.3-0.2,0.4-0.4,0.4c-0.3,0-0.7,0-1,0c-0.7,0-1.3,0-2,0c-0.3,0-0.4,0.1-0.5,0.4c-0.2,1-0.4,2-0.6,2.9c-0.1,0.3,0,0.5,0.3,0.5
		c0.2,0.1,0.4-0.1,0.5-0.3c0.2-0.9,0.4-1.7,0.6-2.6c0-0.2,0.1-0.2,0.2-0.2c0.8,0,1.7,0,2.5,0c0.7,0,1.3-0.5,1.3-1.3
		c0-1.6,0-3.2,0-4.7c0-0.6-0.3-1-0.9-1.2c-0.5-0.2-1.1,0-1.5,0.4c-0.2,0.2-0.2,0.5-0.2,0.8c0,1.1,0,2.2,0,3.4
		C13.4,11.2,13.4,11.3,13.4,11.4z"/>
</g>
<path class="st2" d="M5.1,10.7c2.6,0,5.3,0,7.9,0c0-0.1,0-0.3,0-0.4c-0.1,0-0.1,0-0.2,0c-2.5,0-5,0-7.5,0c-0.1,0-0.2,0-0.2,0.1
	C5.1,10.5,5.1,10.6,5.1,10.7z"/>
<path class="st3" d="M6,9.7c2,0,4,0,6.1,0c0-0.1,0-0.2,0-0.3c0,0-0.1,0-0.1,0c-1.9,0-3.9,0-5.8,0C6,9.4,6,9.4,6,9.5
	C6,9.6,6,9.7,6,9.7z"/>
<path class="st1" d="M14.5,5.9c-0.8,0-1.5-0.7-1.5-1.5c0-0.9,0.7-1.5,1.5-1.5c0.8,0,1.5,0.7,1.5,1.5C16,5.2,15.3,5.9,14.5,5.9z
	 M15.3,4.4c0-0.4-0.3-0.8-0.8-0.8c-0.4,0-0.8,0.4-0.8,0.8c0,0.4,0.4,0.8,0.8,0.8C14.9,5.2,15.3,4.8,15.3,4.4z"/>
<path class="st0" d="M3.5,5.9C2.7,5.9,2,5.3,2,4.4c0-0.9,0.7-1.5,1.5-1.5c0.8,0,1.5,0.7,1.5,1.5C5.1,5.2,4.4,5.9,3.5,5.9z M4.3,4.4
	C4.3,4,4,3.6,3.5,3.6C3.1,3.6,2.7,4,2.7,4.4c0,0.4,0.4,0.8,0.8,0.8C4,5.2,4.3,4.8,4.3,4.4z"/>
<circle class="st4" cx="9" cy="5.1" r="3.3"/>
<path class="st4" d="M11.7,5.2c0,1.5-1.2,2.7-2.7,2.7S6.3,6.7,6.3,5.2"/>
<g>
	<g>
		<path class="st5" d="M7.5,3.3c0.1,0.1,0.2,0.3,0.4,0.6C8,4.1,8.1,4.3,8.3,4.6L8,4.8L7.7,4.4l0,0.6L7.1,4.8l0.2,0.4L7.1,5.3
			C7,5.2,6.9,5,6.7,4.7C6.5,4.6,6.4,4.4,6.2,4.1l0.5-0.3c0,0,0.1,0.1,0.2,0.1C7,4,7.1,4.1,7.2,4.1c0-0.1,0-0.2,0-0.3
			c0-0.1,0-0.1,0-0.2L7.5,3.3z"/>
		<path class="st5" d="M9.2,3.1l0,0.6c0,0-0.1,0-0.2,0c-0.1,0-0.1,0-0.2,0l0,0.2c0.1,0,0.2,0,0.3,0c0,0,0,0.1,0,0.1c0,0,0,0.1,0,0.1
			c0,0-0.1,0-0.1,0c0,0-0.1,0-0.2,0l0,0.2c0,0,0.1,0,0.3,0c0,0,0.1,0,0.1,0c0,0,0,0.1,0,0.1c0,0,0,0.1,0,0.1L8.3,4.6L8.3,3.9
			c0-0.2-0.1-0.4-0.1-0.7L9.2,3.1z"/>
		<path class="st5" d="M10.6,3.4L10.4,4c0,0-0.1,0-0.1-0.1c0,0-0.1,0-0.2-0.1L10,4c0.1,0,0.2,0.1,0.3,0.1c0,0,0,0.1-0.1,0.1
			c0,0,0,0.1-0.1,0.1c0,0-0.1,0-0.1-0.1c0,0-0.1,0-0.1,0L9.9,4.5c0,0,0.1,0,0.3,0.1c0,0,0.1,0,0.1,0c0,0,0,0.1-0.1,0.1
			c0,0,0,0.1-0.1,0.1L9.3,4.6l0.2-0.7c0-0.2,0.1-0.4,0.2-0.7L10.6,3.4z"/>
		<path class="st5" d="M12,4.4l-0.4,0.4c0,0,0,0-0.1-0.1c0,0-0.1-0.1-0.1-0.1c0,0-0.1,0.1-0.2,0.2C11.1,5,11,5.1,10.8,5.3L10.4,5
			c0.1-0.1,0.2-0.3,0.4-0.5c0.1-0.1,0.1-0.2,0.2-0.2l-0.1-0.1l-0.1-0.1l0.4-0.5L12,4.4z"/>
	</g>
	<g>
		<g>
			<path class="st5" d="M9.1,5.2l0,0.6c0,0.2,0,0.4,0,0.8C8.9,6.7,8.8,6.7,8.6,6.7c-0.2,0-0.4,0-0.5-0.1C8,6.5,8,6.4,7.9,6.3
				c0-0.1,0-0.2-0.1-0.5c0-0.2,0-0.4,0-0.6h0.6c0,0.1,0,0.2,0,0.4c0,0.1,0,0.3,0,0.5c0,0.1,0,0.2,0,0.3c0,0.1,0.1,0.1,0.2,0.1
				c0,0,0,0,0.1,0c0-0.1,0-0.3,0-0.6c0-0.1,0-0.3,0-0.6H9.1z"/>
			<path class="st5" d="M10.4,5.8c0,0.2-0.1,0.3-0.2,0.4C10.1,6.3,10,6.4,9.8,6.4l0,0.3H9.3l0-0.7c0-0.2,0-0.4,0-0.8
				c0.1,0,0.2,0,0.4,0c0.2,0,0.4,0,0.6,0.1C10.4,5.4,10.4,5.6,10.4,5.8z M10,6c0-0.1-0.1-0.1-0.2-0.1c0,0,0,0,0,0l0,0.3
				C10,6.1,10,6.1,10,6z"/>
		</g>
	</g>
</g>
</svg>
